# xmcd CD database file
#
# Track frame offsets:
#	190
#	20577
#	39602
#	53165
#	82445
#	98715
#	121605
#	137202
#	161550
#	179195
#	195365
#
# Disc length: 2715 seconds
#
# Revision: 0
# Processed by: cddbd v1.5.2PL0 Copyright (c) Steve Scherf et al.
# Submitted via: CDex 1.70beta2
#
DISCID=970a990b
DTITLE=snowy white's blues agency - change my life
DYEAR=1988
DGENRE=Blues
TTITLE0=snowy white's blues agency - woke up this morning
TTITLE1=snowy white's blues agency - the thrill is gone
TTITLE2=snowy white's blues agency - you know it ain't right
TTITLE3=snowy white's blues agency - change my life
TTITLE4=snowy white's blues agency - the agency blues
TTITLE5=snowy white's blues agency - judgement day
TTITLE6=snowy white's blues agency - ooh-wee baby
TTITLE7=snowy white's blues agency - the rest of my life
TTITLE8=snowy white's blues agency - parchman farm
TTITLE9=snowy white's blues agency - the agency shuffle
TTITLE10=snowy white's blues agency - another man
EXTD=YEAR: 1988
EXTT0=
EXTT1=
EXTT2=
EXTT3=
EXTT4=
EXTT5=
EXTT6=
EXTT7=
EXTT8=
EXTT9=
EXTT10=
PLAYORDER=
